<svg xmlns="http://www.w3.org/2000/svg" width="600" height="190" viewBox="0 0 600 190"><defs><radialGradient id="h"><stop stop-color="#a5c7dc" stop-opacity=".17"/><stop offset="1" stop-color="#a5c7dc" stop-opacity="0"/></radialGradient><linearGradient id="m" x2="1" y2="1"><stop stop-color="#475f73"/><stop offset=".5" stop-color="#162536"/><stop offset="1" stop-color="#334b62"/></linearGradient></defs><ellipse cx="300" cy="100" rx="250" ry="90" fill="url(#h)"/><path d="M70 155h460M105 35h60m270 0h60" stroke="#a5c7dc" opacity=".2"/><g fill="url(#m)" stroke="#a5c7dc" stroke-width="2" stroke-linejoin="round"><path d="m300 34 30 27 6 83-36 19-36-19 6-83Z"/><path d="M269 84h-47v29h43m66-29h47v29h-43"/><rect x="209" y="63" width="29" height="81" rx="10"/><rect x="362" y="63" width="29" height="81" rx="10"/><path d="m300 49 16 28-16 11-16-11Z" fill="#244457"/><circle cx="347" cy="61" r="11"/><path d="M213 151h21m132 0h21"/><ellipse cx="300" cy="103" rx="77" ry="62" fill="none" opacity=".4"/></g></svg>